<?xml version="1.0" encoding="UTF-8" standalone="no"?>
<svg
   version="1.0"
   viewBox="0 0 300 350"
   id="svg2"
   sodipodi:docname="icon.svg"
   inkscape:version="1.3.2 (091e20e, 2023-11-25)"
   width="300"
   height="350"
   xmlns:inkscape="http://www.inkscape.org/namespaces/inkscape"
   xmlns:sodipodi="http://sodipodi.sourceforge.net/DTD/sodipodi-0.dtd"
   xmlns="http://www.w3.org/2000/svg"
   xmlns:svg="http://www.w3.org/2000/svg">
  <defs
     id="defs2" />
  <sodipodi:namedview
     id="namedview2"
     pagecolor="#ffffff"
     bordercolor="#000000"
     borderopacity="0.25"
     inkscape:showpageshadow="2"
     inkscape:pageopacity="0.0"
     inkscape:pagecheckerboard="0"
     inkscape:deskcolor="#d1d1d1"
     inkscape:zoom="0.725"
     inkscape:cx="500"
     inkscape:cy="349.65517"
     inkscape:window-width="1392"
     inkscape:window-height="1212"
     inkscape:window-x="1542"
     inkscape:window-y="57"
     inkscape:window-maximized="0"
     inkscape:current-layer="svg2" />
  <g
     id="g2"
     transform="translate(-1.3793104,5.5172414)">
    <path
       fill="#ec0017"
       d="m 148.54379,102.30172 q -0.05,-0.16 -0.21,-0.11 h -0.01 q -0.08,0.03 -0.06,0.11 1.37,5.77 2.81,11.54 1.3,5.2 1.57,10.73 c 0.41,8.41 1.18,16.2 0.32,24.54 -0.59,5.68 -0.94,11.43 -2.01,17.08 q -5.1,26.86 -17.18,53.14 -11.38,24.79 -26.3,46.57 -0.36,0.52 -0.61,-0.06 -2.1,-4.79 -3.58,-9.35 -5.679997,-17.44 -10.739997,-35.12 -3.09,-10.83 -4.78,-19.33 -14.64,-73.76 22.109997,-139.769996 6.41,-11.52 13.58,-23.96 7.91,-13.73 11.69,-28.31 a 0.43,0.43 0 0 1 0.45,-0.3199999 q 14.6,0.9099999 28.2,10.8399999 c 17.79,12.98 30.45,31.65 38.13,52.36 12.82,34.519996 12.32,71.389996 0.48,106.399996 q -5.98,17.68 -17.81,35.35 -18.25,27.27 -44.03,42.76 c -0.97,0.58 -2.06,1.8 -2.59,2.8 -5.79,10.86 -11.85,26.06 -8.75,37.92 3,11.5 15.35,15.48 26.36,15.12 q 18.37,-0.59 34.08,-5.74 c 29.75,-9.75 55.15,-29.96 70.63,-57.4 q 20.58,-36.48 15.04,-78.64 c -4.84,-36.83 -27.55,-70.59 -59.6,-89.479996 q -1.93,-1.14 -2.88,-3.04 -3.52,-7 -7.29,-14.09 -0.51,-0.96 0.48,-0.52 c 46.15,20.18 77.57,64.109996 81.28,114.029996 3.78,50.84 -20.45,98.44 -63.42,125.49 q -31.6,19.9 -70.1,20.67 -9.49,0.19 -18.57,-4.04 c -26.75,-12.47 -18.53,-43.88 -7.76,-64.16 7.39,-13.91 13.42,-28.65 18.43,-43.82 q 6.81,-20.65 9.74,-42.41 c 1.17,-8.77 1.2,-18.22 1.13,-27.23 q -0.03,-3.32 -1.85,-16.72 -0.83,-6.11 -2.61,-11.98 -1.87,-6.15 -3.77,-11.85 z"
       id="path1"
       style="fill:#808080" />
    <path
       fill="#ec0017"
       d="m 53.023793,289.89172 8.32,13 a 0.65,0.66 57 0 1 -0.2,0.91 l -8.58,5.47 a 0.44,0.43 56.8 0 1 -0.61,-0.13 l -8.5,-13.44 a 0.62,0.62 0 0 0 -0.86,-0.19 l -7.2,4.73 a 0.61,0.6 55.2 0 1 -0.81,-0.15 c -4.28,-5.71 -7.15,-12.05 -7.21,-19.31 q -0.09,-11.86 8.28,-20.62 a 0.99,1 51.4 0 0 0.14,-1.2 q -22.33,-37.7 -19.13,-80.84 c 3.72,-50.26 35.77,-94.429996 82.08,-114.259996 q 1.18,-0.51 0.61,0.64 -3.03,6.21 -4.86,12.9 -0.25,0.91 -1.03,1.34 c -37.74,20.94 -62.62,57.679996 -65.68,100.879996 q -2.76,38.9 17.42,73.04 a 1.31,1.32 65 0 0 1.57,0.57 q 7.96,-2.82 16.89,-0.55 c 8.69,2.21 15.25,8.77 19.39,16.76 a 0.44,0.43 60.3 0 1 -0.15,0.57 l -9.38,5.88 a 0.74,0.73 57.9 0 0 -0.23,1.02 l 8.36,13.13 q 0.32,0.5 -0.18,0.82 l -8.23,5.31 a 0.88,0.88 0 0 1 -1.21,-0.27 l -8.01,-12.67 q -0.57,-0.91 -1.48,-0.33 l -9.29,5.92 q -0.65,0.42 -0.23,1.07 z m 13.31,-23.79 c -5.5,-3.89 -13.15,-4.38 -18.86,-1.02 q -10.07,5.91 -8.76,18.52 a 0.67,0.66 70.9 0 0 1.02,0.5 l 26.58,-16.93 a 0.65,0.65 0 0 0 0.02,-1.07 z"
       id="path2"
       style="fill:#808080" />
  </g>
</svg>
